<?xml version="1.0" standalone="no"?>
<!DOCTYPE svg PUBLIC "-//W3C//DTD SVG 20010904//EN"
 "http://www.w3.org/TR/2001/REC-SVG-20010904/DTD/svg10.dtd">
<svg version="1.0" xmlns="http://www.w3.org/2000/svg"
 width="3544.000000pt" height="3544.000000pt" viewBox="0 0 3544.000000 3544.000000"
 preserveAspectRatio="xMidYMid meet">

<g transform="translate(0.000000,3544.000000) scale(0.100000,-0.100000)"
fill="#000000" stroke="none">
<path d="M21703 30726 c-28 -6 -55 -14 -59 -18 -4 -5 -15 -8 -25 -8 -54 0
-320 -165 -415 -257 -13 -13 -26 -23 -30 -23 -24 0 -373 -382 -467 -511 -58
-80 -144 -200 -154 -216 -7 -10 -32 -47 -56 -83 -37 -55 -64 -100 -150 -245
-7 -11 -19 -31 -28 -45 -9 -14 -33 -56 -54 -95 -21 -38 -41 -72 -44 -75 -3 -3
-17 -25 -30 -50 -60 -114 -83 -155 -90 -165 -5 -5 -34 -59 -66 -120 -32 -60
-61 -114 -65 -120 -4 -5 -22 -37 -40 -70 -18 -33 -44 -80 -58 -105 -14 -25
-31 -56 -39 -70 -8 -14 -25 -43 -39 -65 -13 -22 -27 -47 -31 -55 -4 -8 -9 -17
-12 -20 -20 -18 -129 -238 -143 -290 -5 -19 -15 -69 -20 -110 -6 -41 -16 -78
-21 -82 -6 -4 -45 -9 -87 -13 -124 -10 -383 -41 -500 -60 -47 -8 -116 -19
-155 -25 -77 -12 -152 -24 -247 -41 -131 -23 -174 -31 -208 -39 -19 -5 -64
-14 -100 -20 -36 -6 -87 -17 -115 -25 -27 -7 -95 -23 -150 -35 -55 -13 -122
-29 -150 -36 -67 -17 -79 -20 -159 -39 -38 -9 -78 -20 -90 -25 -11 -4 -39 -13
-61 -19 -96 -25 -309 -89 -355 -107 -19 -7 -53 -18 -75 -25 -22 -6 -49 -15
-60 -20 -11 -4 -54 -19 -95 -33 -117 -39 -181 -63 -227 -85 -23 -12 -47 -21
-53 -21 -5 0 -18 -4 -28 -9 -26 -14 -111 -51 -117 -51 -17 0 -446 -210 -540
-265 -33 -19 -66 -37 -73 -41 -12 -6 -63 31 -127 92 -17 16 -53 47 -80 69 -28
22 -52 42 -55 45 -3 3 -21 17 -40 30 -19 13 -44 32 -55 42 -23 21 -125 94
-235 170 -41 28 -77 54 -80 57 -3 3 -32 24 -65 46 -33 22 -66 45 -73 52 -6 6
-21 15 -32 18 -11 3 -20 11 -20 16 0 5 -4 9 -9 9 -5 0 -45 25 -89 55 -44 30
-85 55 -91 55 -6 0 -11 4 -11 8 0 5 -15 16 -32 25 -33 17 -50 27 -98 58 -14 9
-42 26 -62 38 -92 52 -109 61 -145 84 -21 13 -81 45 -133 71 -52 26 -102 51
-110 56 -15 10 -140 66 -175 80 -11 4 -51 21 -90 38 -142 63 -422 145 -585
172 -168 28 -381 29 -465 2 -35 -11 -124 -53 -144 -67 -35 -26 -98 -93 -111
-119 -9 -17 -15 -57 -15 -98 l0 -68 -35 0 c-42 0 -145 -47 -184 -83 -16 -15
-32 -25 -35 -22 -4 2 -25 39 -46 82 -21 43 -53 101 -71 130 -18 28 -41 69 -52
90 -21 42 -71 132 -82 148 -4 6 -30 54 -59 107 -28 54 -60 112 -71 130 -11 18
-23 41 -26 51 -4 9 -9 17 -13 17 -3 0 -17 25 -31 55 -14 30 -28 55 -32 55 -5
0 -8 4 -8 9 0 5 -20 44 -45 85 -25 42 -45 81 -45 86 0 6 -3 10 -8 10 -4 0 -14
15 -21 33 -8 17 -30 55 -48 84 -18 29 -33 57 -33 63 0 5 -4 10 -8 10 -4 0 -14
16 -21 35 -7 19 -17 35 -22 35 -5 0 -9 5 -9 10 0 6 -11 29 -26 51 -14 22 -33
55 -44 73 -10 18 -24 44 -32 57 -7 13 -15 26 -18 29 -3 3 -16 25 -29 50 -13
25 -30 52 -37 61 -8 8 -14 19 -14 23 0 4 -5 12 -10 19 -6 7 -32 46 -57 87 -26
41 -53 81 -60 88 -6 6 -15 21 -18 32 -3 11 -11 20 -16 20 -5 0 -9 5 -9 11 0 9
-126 197 -140 209 -4 3 -21 27 -40 54 -18 27 -40 57 -49 66 -34 35 -71 80 -71
86 0 12 -153 156 -192 180 -126 80 -216 114 -300 114 -95 0 -191 -48 -224
-113 -16 -29 -18 -30 -28 -13 -42 72 -112 115 -198 123 -45 5 -75 0 -143 -22
-47 -15 -85 -32 -85 -36 0 -5 -5 -9 -11 -9 -29 0 -269 -201 -269 -226 0 -3 -8
-14 -18 -23 -10 -9 -36 -38 -57 -66 -22 -27 -43 -51 -47 -53 -5 -2 -8 -8 -8
-13 0 -5 -18 -32 -40 -61 -22 -29 -40 -58 -40 -65 0 -6 -3 -13 -7 -15 -9 -4
-55 -73 -87 -131 -13 -23 -38 -69 -56 -102 -18 -33 -41 -73 -50 -90 -46 -82
-150 -292 -150 -303 0 -7 -4 -12 -10 -12 -5 0 -10 -6 -10 -13 0 -8 -6 -27 -14
-43 -13 -28 -38 -83 -50 -114 -3 -8 -10 -22 -15 -30 -22 -38 -201 -479 -201
-497 0 -7 -4 -21 -9 -31 -28 -54 -96 -250 -140 -402 -32 -108 -72 -241 -81
-270 -8 -25 -20 -72 -41 -152 -23 -91 -29 -115 -44 -183 -9 -38 -20 -83 -25
-100 -5 -16 -19 -82 -30 -145 -11 -63 -25 -137 -30 -165 -19 -107 -30 -187
-66 -513 -19 -171 -15 -561 7 -627 36 -109 108 -174 227 -205 71 -18 187 14
241 68 36 36 78 98 86 127 4 17 11 167 15 335 4 168 10 325 14 350 4 25 11 86
17 135 5 50 14 116 20 148 23 139 31 185 43 237 8 30 19 82 26 115 18 84 68
302 82 350 6 22 14 54 19 70 5 17 19 64 32 105 13 41 35 109 47 150 37 119 67
213 80 245 19 45 26 66 39 110 7 22 16 49 21 60 4 11 25 63 45 115 21 52 46
113 55 135 9 22 32 76 50 120 65 155 227 492 294 610 19 33 41 71 49 85 8 14
25 45 38 70 13 25 27 49 32 55 17 23 57 86 57 91 0 3 14 25 30 49 17 24 30 48
30 54 0 6 5 11 10 11 6 0 10 5 10 10 0 6 48 80 106 165 102 149 108 155 141
155 46 0 81 38 85 93 3 33 5 38 12 22 33 -84 89 -182 133 -230 10 -11 38 -46
62 -78 24 -32 49 -61 56 -65 6 -4 31 -34 55 -67 24 -33 50 -66 57 -74 8 -7 32
-41 55 -75 23 -33 44 -63 48 -66 3 -3 17 -23 30 -45 13 -22 28 -44 33 -50 20
-23 117 -178 117 -185 0 -5 6 -13 13 -17 6 -4 20 -24 29 -43 10 -19 38 -66 62
-105 40 -62 76 -124 139 -235 11 -19 27 -47 36 -62 19 -31 87 -149 114 -198
10 -19 23 -39 27 -45 8 -11 44 -75 98 -175 20 -36 38 -67 41 -70 4 -3 17 -27
31 -55 14 -27 27 -52 30 -55 3 -3 17 -27 30 -55 14 -27 32 -61 41 -75 15 -23
30 -49 110 -197 18 -32 35 -63 40 -68 4 -6 21 -35 37 -65 51 -96 84 -154 113
-197 16 -23 29 -44 29 -46 0 -7 61 -106 98 -159 17 -26 32 -51 32 -56 0 -6 4
-12 8 -14 5 -1 22 -24 40 -50 l32 -46 3 -159 c4 -145 11 -212 39 -363 24 -129
29 -154 59 -265 29 -112 129 -403 166 -485 14 -30 28 -64 33 -75 4 -11 15 -36
23 -55 9 -19 23 -55 33 -80 9 -25 21 -49 26 -55 4 -5 8 -17 8 -27 0 -10 5 -18
10 -18 6 0 10 -5 10 -11 0 -15 82 -186 199 -418 51 -102 150 -298 220 -436 69
-137 128 -252 131 -255 5 -4 75 -146 113 -230 6 -14 16 -32 22 -40 6 -8 28
-53 49 -100 21 -47 50 -110 64 -140 13 -30 36 -80 49 -110 14 -30 29 -63 34
-72 13 -25 10 -36 -4 -17 -7 8 -34 30 -62 49 -27 19 -56 40 -65 46 -37 30
-149 113 -194 144 -27 18 -57 40 -66 49 -32 30 -60 51 -69 51 -5 0 -11 3 -13
8 -2 4 -21 19 -44 35 -22 15 -50 36 -62 47 -12 11 -26 20 -32 20 -5 0 -10 4
-10 8 0 4 -13 16 -30 25 -16 10 -35 23 -42 30 -7 7 -31 25 -53 42 -22 16 -45
34 -51 40 -6 6 -41 30 -78 54 -36 24 -66 47 -66 51 0 4 -14 13 -30 20 -16 7
-30 16 -30 21 0 5 -5 9 -10 9 -6 0 -16 4 -23 10 -29 24 -127 85 -180 112 -55
28 -60 29 -95 15 -46 -18 -77 -72 -68 -120 8 -41 126 -164 266 -277 30 -25 57
-47 60 -50 3 -4 23 -19 45 -35 22 -17 42 -32 45 -36 3 -3 41 -32 85 -65 44
-32 82 -61 85 -65 3 -3 28 -20 55 -39 28 -19 52 -37 55 -40 4 -6 36 -29 160
-117 13 -10 32 -26 42 -35 10 -10 20 -18 22 -18 5 0 129 -88 179 -126 14 -11
33 -24 43 -31 11 -7 56 -37 102 -67 45 -31 87 -56 92 -56 4 0 10 -3 12 -7 8
-18 77 -48 123 -53 49 -5 49 -5 66 -55 89 -270 121 -407 154 -675 17 -135 19
-429 5 -550 -23 -182 -83 -461 -111 -512 -5 -10 -9 -26 -9 -36 0 -10 -4 -22
-8 -27 -5 -6 -14 -30 -21 -55 -14 -47 -27 -83 -42 -112 -5 -10 -9 -22 -9 -28
0 -37 -242 -529 -330 -670 -15 -25 -47 -79 -70 -120 -24 -41 -47 -76 -52 -78
-4 -2 -8 -8 -8 -14 0 -5 -13 -29 -30 -53 -16 -24 -30 -48 -30 -54 0 -6 -4 -11
-9 -11 -5 0 -13 -9 -16 -20 -3 -11 -12 -26 -18 -32 -7 -7 -57 -80 -111 -161
-54 -82 -105 -155 -112 -162 -8 -7 -14 -16 -14 -20 0 -10 -44 -69 -57 -78 -7
-4 -13 -14 -13 -22 0 -7 -4 -15 -8 -17 -5 -1 -23 -25 -42 -53 -19 -27 -39 -55
-45 -62 -20 -24 -31 -39 -65 -88 -19 -27 -40 -55 -47 -62 -6 -7 -21 -28 -33
-48 -12 -19 -25 -35 -28 -35 -4 0 -18 -18 -32 -40 -14 -22 -28 -40 -32 -40 -5
0 -8 -4 -8 -10 0 -10 -20 -37 -51 -70 -9 -9 -31 -39 -50 -66 -32 -46 -60 -82
-86 -110 -7 -7 -13 -17 -13 -22 0 -6 -4 -12 -8 -14 -17 -7 -138 -195 -151
-235 -35 -106 21 -251 122 -317 31 -21 115 -46 153 -46 37 0 86 15 134 40 l35
18 0 -42 c0 -25 6 -49 15 -57 14 -13 106 -60 155 -79 11 -5 36 -15 57 -24 20
-9 39 -16 43 -16 7 0 19 -5 125 -53 30 -13 73 -31 95 -38 22 -7 44 -17 50 -21
5 -4 15 -8 22 -8 8 0 33 -9 55 -20 23 -11 47 -20 54 -20 7 0 25 -6 41 -14 53
-27 184 -75 278 -102 28 -8 59 -19 70 -23 59 -25 110 -43 205 -71 58 -18 116
-36 130 -40 14 -4 45 -13 70 -20 25 -7 63 -18 85 -26 47 -16 101 -30 335 -91
187 -48 215 -54 300 -73 30 -7 73 -16 95 -21 22 -5 63 -14 90 -19 28 -5 73
-14 100 -19 76 -15 164 -31 225 -40 30 -5 73 -13 95 -19 22 -5 81 -15 130 -21
50 -7 113 -16 140 -21 54 -10 163 -23 315 -40 52 -6 133 -15 179 -20 46 -6
102 -10 124 -10 l40 0 -38 -32 c-168 -143 -543 -520 -680 -683 -27 -33 -56
-67 -65 -75 -8 -8 -27 -31 -42 -50 -14 -19 -34 -44 -44 -55 -11 -11 -35 -43
-54 -70 -36 -52 -38 -55 -69 -93 -10 -12 -47 -66 -82 -120 -35 -53 -66 -99
-69 -102 -11 -9 -90 -152 -90 -161 0 -5 -3 -9 -7 -9 -5 0 -13 -10 -19 -23 -6
-12 -27 -53 -47 -92 -59 -115 -127 -264 -127 -279 0 -8 -4 -17 -9 -20 -4 -3
-14 -27 -21 -53 -7 -27 -16 -52 -20 -58 -6 -9 -16 -41 -43 -135 -5 -19 -13
-45 -18 -56 -7 -20 -29 -109 -49 -199 -17 -77 -29 -151 -35 -212 l-7 -63 -56
0 c-55 0 -139 7 -362 31 -58 6 -148 15 -200 20 -161 13 -490 49 -645 69 -38 5
-110 14 -160 20 -49 6 -128 17 -175 25 -47 8 -119 19 -160 26 -185 27 -209 31
-420 69 -149 28 -203 39 -270 55 -30 8 -95 24 -145 35 -49 12 -106 25 -125 30
-19 5 -73 18 -120 29 -47 12 -123 33 -170 47 -47 14 -116 35 -155 46 -99 29
-276 87 -300 98 -11 5 -49 18 -85 30 -36 12 -74 25 -85 30 -11 4 -36 13 -55
20 -19 7 -44 16 -55 20 -11 4 -51 20 -90 35 -38 15 -89 36 -112 46 -24 11 -45
19 -48 19 -5 0 -51 20 -160 70 -33 16 -78 36 -100 45 -62 27 -431 210 -515
256 -118 65 -170 93 -188 104 -9 6 -51 30 -92 54 -41 24 -91 53 -110 66 -19
12 -66 41 -105 65 -38 23 -102 65 -142 91 -39 27 -76 49 -82 49 -6 0 -11 4
-11 8 0 5 -12 15 -27 23 -15 8 -37 22 -49 32 -12 10 -61 45 -110 78 -49 33
-91 63 -94 68 -3 4 -21 18 -40 31 -19 14 -39 28 -45 32 -5 4 -44 34 -85 65
-41 32 -76 61 -78 65 -2 4 -8 8 -13 8 -8 0 -43 28 -89 70 -8 8 -40 34 -70 57
-30 23 -73 59 -96 80 -23 21 -72 65 -109 98 -79 70 -359 347 -425 420 -75 84
-103 118 -145 170 -22 28 -43 52 -47 53 -5 2 -8 8 -8 13 0 11 33 12 45 1 6 -5
44 -19 85 -31 41 -13 86 -27 99 -33 23 -9 136 -38 226 -59 94 -22 316 -63 415
-78 31 -5 65 -11 75 -14 25 -8 138 -26 235 -37 41 -5 116 -14 165 -20 182 -22
327 -31 605 -37 282 -5 385 1 485 29 94 27 156 93 189 201 15 49 16 65 7 104
-24 92 -83 172 -149 200 -60 26 -224 42 -437 42 -264 1 -629 32 -895 76 -47 7
-119 19 -160 25 -41 6 -89 15 -106 21 -17 5 -43 9 -59 9 -16 0 -42 4 -59 10
-17 5 -67 16 -111 25 -44 8 -111 22 -150 31 -77 17 -78 18 -385 78 -398 78
-525 92 -566 61 -13 -10 -45 -14 -102 -15 -95 0 -119 -9 -179 -72 -81 -84
-110 -185 -83 -286 13 -45 55 -137 99 -214 11 -21 30 -53 40 -72 18 -32 90
-136 101 -146 3 -3 11 -17 19 -32 8 -15 21 -36 30 -45 9 -10 30 -36 46 -58 17
-22 32 -42 35 -45 3 -3 23 -27 45 -55 21 -27 42 -52 45 -55 3 -3 25 -30 50
-60 51 -61 78 -90 230 -245 136 -138 253 -250 355 -340 44 -38 82 -72 85 -75
3 -3 32 -27 65 -55 33 -27 69 -58 80 -68 11 -11 39 -32 63 -48 23 -17 53 -40
65 -52 13 -12 34 -30 48 -39 13 -9 33 -24 44 -32 11 -9 47 -36 80 -61 33 -25
69 -52 80 -61 11 -8 32 -23 47 -32 16 -9 28 -20 28 -24 0 -4 5 -8 10 -8 6 0
16 -5 23 -10 55 -47 74 -60 84 -60 6 0 13 -4 15 -8 3 -9 74 -57 214 -147 51
-33 102 -66 111 -73 33 -22 114 -72 119 -72 5 0 87 -52 94 -60 3 -4 20 -12 38
-19 17 -8 32 -16 32 -20 0 -3 24 -17 53 -31 28 -14 54 -28 57 -31 3 -3 12 -9
20 -12 8 -4 31 -17 50 -28 19 -12 100 -55 180 -96 80 -41 149 -79 154 -84 6
-5 18 -9 28 -9 10 0 18 -4 18 -10 0 -5 4 -10 9 -10 5 0 80 -34 166 -75 86 -41
158 -75 160 -75 3 0 38 -16 79 -35 41 -19 79 -35 84 -35 5 0 22 -6 38 -14 16
-8 88 -37 159 -66 72 -28 139 -55 150 -60 11 -4 36 -13 55 -20 19 -7 44 -16
55 -21 11 -4 54 -19 95 -33 41 -14 100 -34 130 -45 30 -11 102 -34 160 -51 58
-17 132 -40 165 -51 78 -26 383 -106 488 -128 27 -6 52 -13 57 -16 4 -3 52
-14 106 -25 55 -11 133 -27 174 -35 41 -8 102 -20 135 -26 33 -6 78 -14 100
-19 22 -5 74 -14 115 -20 41 -6 107 -18 145 -25 158 -30 505 -67 815 -86 338
-22 770 7 1028 67 35 9 65 14 67 12 2 -2 7 -59 10 -128 11 -187 64 -521 100
-625 8 -22 26 -80 41 -130 23 -77 44 -137 84 -240 19 -50 141 -305 160 -335 5
-8 27 -44 47 -79 57 -97 169 -269 182 -281 3 -3 19 -23 36 -45 16 -22 31 -42
34 -45 4 -3 22 -25 41 -50 90 -118 334 -361 475 -475 28 -21 52 -42 55 -45 3
-4 28 -22 55 -40 28 -19 56 -40 63 -47 23 -22 100 -73 111 -73 6 0 11 -4 11
-9 0 -5 9 -13 20 -16 11 -3 26 -12 33 -18 14 -13 26 -21 107 -69 158 -93 417
-220 560 -275 36 -14 74 -28 85 -33 11 -4 36 -13 55 -20 19 -7 44 -15 55 -20
159 -59 528 -159 705 -190 275 -49 356 -60 650 -85 375 -31 792 -9 1205 66
147 26 179 42 227 109 84 116 46 270 -82 335 -48 24 -50 24 -431 30 -371 5
-588 14 -829 36 -215 19 -325 30 -380 39 -30 5 -89 14 -130 21 -41 6 -91 15
-110 20 -19 5 -69 16 -110 24 -41 8 -91 19 -110 24 -19 6 -57 15 -85 22 -89
21 -318 93 -347 109 -10 6 -25 10 -33 10 -8 0 -24 4 -35 10 -11 6 -29 15 -40
20 -11 6 -26 10 -33 10 -7 0 -37 11 -65 25 -28 14 -87 41 -129 61 -43 19 -94
43 -113 52 -19 9 -37 18 -40 22 -3 3 -23 14 -45 25 -22 11 -42 22 -45 25 -10
10 -65 41 -82 47 -10 3 -18 9 -18 14 0 5 -5 9 -10 9 -10 0 -242 157 -270 182
-8 8 -40 34 -70 58 -57 45 -340 323 -340 333 0 3 -10 16 -22 29 -65 66 -238
313 -238 338 0 6 -3 10 -8 10 -9 0 -9 0 -95 174 -68 138 -97 205 -123 286 -8
25 -19 54 -23 65 -5 11 -14 40 -21 65 -7 25 -18 63 -25 85 -7 22 -18 67 -25
100 -6 33 -15 78 -20 100 -34 162 -45 553 -21 730 17 120 49 281 65 330 7 22
23 74 36 115 22 73 28 91 51 148 7 15 16 38 21 52 6 14 14 32 19 40 5 8 12 22
15 30 19 48 121 245 155 299 21 34 39 67 39 72 0 5 4 9 9 9 5 0 14 14 21 30 7
17 16 30 21 30 5 0 9 5 9 11 0 7 16 31 35 55 19 23 35 47 35 53 0 6 4 11 8 11
4 0 15 12 24 28 9 15 25 36 35 47 10 11 40 48 66 82 26 34 53 68 60 75 7 7 40
45 72 83 60 72 418 433 535 540 104 96 207 186 238 209 16 11 36 29 46 38 9
10 45 39 79 65 34 26 67 52 73 58 6 5 28 24 49 40 20 17 50 42 66 56 l28 26
328 7 c180 4 373 12 428 17 55 6 154 14 220 19 191 15 344 29 433 40 155 19
242 30 320 40 42 6 106 14 142 19 36 4 88 13 115 19 28 6 84 16 125 22 41 7
95 15 120 20 25 5 74 14 110 20 194 34 431 83 590 120 19 5 78 18 130 30 52
12 111 26 130 31 19 4 56 12 81 18 25 5 56 14 70 19 26 11 64 21 169 47 36 9
81 21 100 26 19 6 51 14 70 19 49 12 96 26 165 49 33 11 92 29 130 40 182 54
211 64 227 72 10 5 25 9 33 9 8 0 23 4 33 10 9 5 64 25 122 45 170 56 178 59
245 86 23 9 137 52 215 81 82 30 90 33 152 62 31 14 62 26 68 26 5 0 18 4 28
9 26 14 111 51 117 51 7 0 97 40 115 51 8 5 22 12 30 15 68 27 238 105 270
123 50 29 467 230 475 230 6 -1 26 -47 46 -103 38 -105 50 -137 76 -196 8 -19
19 -44 23 -55 4 -11 33 -77 64 -147 31 -70 56 -135 56 -143 0 -8 5 -15 10 -15
6 0 10 -6 10 -14 0 -14 79 -196 121 -278 5 -10 9 -25 9 -33 0 -8 5 -15 10 -15
6 0 10 -7 10 -15 0 -8 4 -23 9 -33 5 -9 20 -42 34 -72 14 -30 44 -94 66 -142
23 -48 41 -89 41 -92 0 -2 24 -55 53 -117 78 -166 107 -229 107 -234 0 -3 -5
-5 -11 -5 -27 0 -67 -64 -88 -140 -7 -25 -19 -59 -26 -76 -15 -36 -87 -330
-104 -424 -18 -105 -17 -227 4 -250 27 -29 66 -39 105 -26 29 9 40 22 64 71
35 74 39 84 66 165 59 182 98 321 107 378 3 17 8 32 12 32 3 0 24 -37 45 -83
76 -160 251 -517 441 -902 106 -214 195 -397 199 -405 3 -8 15 -28 25 -45 11
-16 20 -38 20 -47 1 -10 6 -18 11 -18 6 0 10 -6 10 -14 0 -7 13 -40 29 -72 41
-83 102 -215 111 -239 5 -11 17 -40 28 -65 10 -25 27 -67 37 -93 10 -26 22
-50 26 -53 5 -3 9 -14 9 -25 0 -10 4 -27 10 -37 13 -23 65 -184 79 -247 7 -27
18 -75 26 -105 21 -83 35 -205 35 -296 0 -84 -21 -244 -40 -304 -6 -19 -15
-51 -21 -70 -24 -80 -76 -200 -116 -265 -59 -97 -61 -99 -124 -179 -126 -158
-298 -292 -501 -390 -64 -31 -122 -56 -130 -56 -8 0 -18 -4 -24 -8 -5 -4 -27
-14 -49 -21 -22 -7 -49 -16 -60 -21 -11 -5 -54 -20 -95 -34 -41 -13 -92 -32
-112 -40 -21 -9 -40 -16 -42 -16 -3 0 16 42 42 92 52 102 74 153 92 213 7 22
16 49 20 60 4 11 13 40 20 65 6 25 16 59 21 77 31 100 48 246 55 471 9 264
-16 525 -76 797 -4 22 -14 67 -20 100 -6 33 -15 76 -20 95 -5 19 -19 76 -30
125 -12 50 -28 108 -35 130 -7 22 -18 58 -24 80 -38 138 -90 294 -123 365 -11
25 -24 54 -28 65 -26 72 -111 225 -145 260 -67 68 -148 93 -234 70 -69 -18
-107 -44 -156 -107 -34 -44 -47 -156 -26 -237 5 -20 15 -63 21 -96 7 -33 17
-73 22 -90 15 -47 70 -257 76 -288 2 -15 8 -30 13 -33 5 -3 9 -18 9 -33 0 -15
3 -31 7 -35 10 -10 34 -96 73 -261 42 -176 63 -291 101 -550 21 -147 24 -403
5 -512 -22 -127 -56 -283 -67 -305 -5 -10 -13 -27 -19 -38 -5 -11 -10 -24 -10
-30 0 -10 -43 -103 -63 -135 -51 -81 -116 -175 -141 -204 -61 -68 -142 -147
-181 -176 -22 -17 -44 -35 -50 -41 -21 -23 -211 -141 -275 -170 -90 -42 -222
-91 -280 -104 -78 -19 -188 -49 -230 -64 -73 -26 -73 -26 -65 63 8 89 -7 234
-36 361 -26 112 -37 143 -95 270 -21 47 -41 87 -44 90 -3 3 -16 25 -29 50 -21
39 -76 125 -98 155 -5 6 -20 28 -34 50 -25 39 -53 73 -142 180 -23 28 -96 105
-162 173 -66 68 -121 124 -123 126 -2 2 7 21 20 42 17 30 22 55 23 110 0 39
-5 82 -11 95 -6 13 -21 44 -33 67 -11 24 -21 50 -21 57 0 7 -7 18 -15 25 -8 7
-15 21 -15 31 0 11 -4 19 -10 19 -5 0 -10 6 -10 14 0 22 -218 444 -262 508
-10 14 -18 29 -18 32 0 8 -36 65 -175 281 -32 50 -61 92 -65 95 -4 3 -24 27
-45 54 -89 118 -158 166 -237 166 -43 0 -55 -4 -79 -30 -16 -16 -31 -40 -35
-53 -8 -33 1 -171 14 -227 22 -90 87 -277 113 -320 5 -8 12 -22 15 -30 3 -8
14 -34 25 -58 10 -23 29 -63 40 -90 12 -26 30 -63 40 -82 10 -19 35 -69 56
-110 20 -41 42 -78 47 -82 6 -4 8 -10 5 -13 -8 -7 -59 16 -59 27 0 4 -5 8 -10
8 -9 0 -87 47 -100 60 -3 3 -18 12 -35 20 -16 8 -32 17 -35 20 -3 3 -18 12
-35 21 -107 58 -151 83 -155 88 -11 15 -289 153 -345 172 -22 7 -44 17 -49 21
-6 4 -20 8 -32 8 -13 0 -25 4 -28 9 -3 5 -20 11 -38 14 -18 3 -66 12 -107 21
-41 9 -105 16 -141 17 -64 1 -140 -17 -140 -33 0 -4 -5 -8 -11 -8 -14 0 -33
-20 -58 -61 -28 -45 -28 -135 -2 -187 50 -96 275 -278 446 -362 17 -8 37 -19
45 -26 8 -6 67 -38 130 -71 63 -33 164 -90 223 -127 60 -36 112 -66 117 -66 5
0 10 -3 12 -7 5 -11 176 -123 188 -123 5 0 10 -4 10 -8 0 -5 33 -31 73 -58 39
-27 77 -53 83 -59 6 -5 28 -23 49 -40 21 -16 43 -35 49 -40 6 -6 25 -21 41
-33 116 -89 348 -320 433 -432 23 -30 47 -61 52 -67 37 -45 104 -151 142 -223
101 -194 121 -353 70 -552 -11 -42 -73 -171 -84 -176 -5 -2 -8 -8 -8 -14 0 -5
-25 -62 -56 -126 -56 -117 -60 -126 -85 -192 -20 -50 -18 -167 4 -207 27 -51
60 -81 118 -108 61 -28 111 -32 153 -10 15 8 33 15 40 15 6 0 24 11 40 25 16
14 33 25 37 25 8 0 149 138 184 181 34 40 91 131 110 174 29 64 34 67 64 47
39 -28 120 -63 176 -78 98 -27 333 -13 440 25 17 6 59 20 95 32 36 12 85 31
110 41 25 11 55 24 68 29 43 17 77 34 82 40 3 4 30 19 60 34 51 26 189 111
200 124 3 3 28 22 55 41 28 19 55 39 61 45 6 5 37 33 69 60 31 28 74 67 95 88
41 40 55 45 63 23 13 -33 108 -73 238 -101 121 -25 313 -18 444 16 22 6 58 15
80 21 100 26 400 163 426 195 6 7 18 13 25 13 8 0 14 4 14 9 0 5 13 14 29 21
16 6 37 19 47 28 11 9 37 30 59 46 22 17 42 32 45 36 3 3 23 18 44 34 50 38
145 132 221 221 33 39 63 72 66 75 15 13 136 199 148 228 7 17 17 32 22 32 5
0 9 9 9 20 0 11 4 20 9 20 5 0 13 10 17 23 4 12 20 49 35 82 28 60 74 191 102
295 70 252 75 534 18 857 -5 28 -14 61 -20 72 -6 11 -11 30 -11 42 0 12 -4 36
-10 53 -36 114 -69 217 -80 256 -8 25 -17 50 -20 55 -6 8 -32 73 -70 170 -16
41 -39 93 -89 198 -28 60 -51 111 -51 113 0 3 -59 125 -131 272 -286 581 -472
959 -489 992 -10 19 -26 51 -36 70 -47 98 -84 178 -93 200 -6 14 -15 32 -20
40 -6 8 -28 53 -49 100 -49 106 -70 151 -81 170 -5 8 -23 47 -41 85 -17 39
-35 78 -40 87 -6 10 -10 25 -10 33 0 8 -4 15 -10 15 -5 0 -10 8 -10 19 0 10
-7 24 -15 31 -8 7 -15 18 -15 24 0 7 -11 34 -24 62 -13 27 -32 67 -41 89 -10
22 -34 76 -55 120 -50 106 -90 195 -90 200 0 3 -15 38 -34 77 -53 116 -78 171
-107 243 -4 11 -21 50 -38 86 -17 37 -44 102 -61 145 -52 132 -163 378 -206
457 -15 26 -14 29 8 47 13 11 29 19 36 20 6 0 12 3 12 8 0 4 15 14 33 22 17 7
37 18 42 22 6 5 42 28 80 53 39 24 75 49 82 55 7 5 24 15 38 22 14 6 25 15 25
20 0 4 5 8 11 8 6 0 46 25 89 55 43 30 81 55 84 55 3 0 14 7 23 15 10 8 56 41
103 74 95 67 103 74 204 149 39 30 84 63 100 75 17 12 37 29 46 37 9 8 40 34
70 57 30 23 64 50 75 60 11 10 43 36 70 58 28 21 57 46 65 55 8 9 53 49 100
90 103 89 422 409 505 505 33 39 67 77 75 85 8 8 27 31 41 50 15 19 40 49 55
65 16 17 40 46 54 65 13 19 35 46 48 60 13 14 38 45 55 70 17 24 40 55 52 68
11 13 34 43 50 67 74 106 149 210 154 215 3 3 12 16 19 30 7 14 32 51 55 82
81 111 218 328 353 563 31 55 62 107 69 115 7 8 34 56 61 105 26 50 68 128 94
175 41 76 189 374 210 425 5 11 27 60 49 108 23 49 41 91 41 94 0 3 6 19 14
36 7 18 19 48 26 67 14 41 23 64 40 105 7 17 16 44 21 60 4 17 13 48 19 70 23
87 33 155 39 270 l6 119 42 12 c46 14 160 63 182 79 81 59 120 138 101 206
-27 94 -64 128 -165 150 -83 19 -164 30 -415 58 -339 37 -569 74 -725 117 -61
16 -145 39 -277 73 -40 10 -93 26 -118 35 -25 9 -51 16 -59 16 -14 0 -113 69
-119 82 -2 5 -8 8 -14 8 -5 0 -15 6 -22 13 -7 6 -40 35 -72 62 -73 63 -239
230 -279 280 -16 22 -39 48 -50 60 -11 11 -36 43 -54 70 -19 28 -38 52 -41 55
-11 8 -140 197 -140 204 0 4 -11 19 -24 33 -13 14 -30 37 -38 52 -7 14 -16 31
-21 36 -17 23 -177 277 -177 282 0 3 -16 28 -35 54 -19 27 -35 54 -35 59 0 6
-4 10 -8 10 -5 0 -14 11 -20 24 -11 25 -198 312 -216 333 -19 21 -30 36 -75
103 -24 36 -49 70 -55 75 -7 6 -27 33 -46 60 -19 28 -42 57 -51 65 -8 8 -22
25 -30 37 -67 98 -437 471 -555 559 -22 16 -41 31 -44 34 -13 13 -90 70 -94
70 -3 0 -16 9 -28 19 -13 11 -34 29 -47 40 -13 11 -32 23 -42 26 -11 4 -19 11
-19 16 0 5 -5 9 -11 9 -6 0 -39 20 -73 44 -72 51 -115 76 -209 123 -55 27 -68
37 -62 51 10 24 14 436 6 551 -7 104 -7 103 74 118 17 3 67 23 112 44 105 50
206 146 253 239 18 36 37 73 41 83 14 26 39 153 39 195 0 48 -19 147 -37 197
-24 63 -95 202 -117 229 -12 13 -41 47 -65 75 -24 28 -71 73 -105 98 -33 26
-66 52 -73 58 -37 31 -79 57 -158 96 -33 17 -67 34 -75 39 -24 14 -91 42 -145
61 -27 10 -53 23 -57 31 -10 16 -50 109 -75 168 -30 75 -129 263 -189 362 -92
152 -161 237 -253 311 -25 20 -46 27 -76 27 -32 0 -47 6 -66 26 -32 34 -108
72 -156 78 -95 12 -142 13 -190 2z m177 -638 c0 -5 17 -35 38 -66 53 -78 132
-221 132 -238 0 -8 5 -14 10 -14 6 0 10 -6 10 -13 0 -8 6 -27 14 -43 13 -29
71 -160 87 -199 12 -31 44 -132 68 -215 12 -41 28 -97 36 -125 24 -85 66 -283
78 -367 l4 -27 -31 21 c-17 12 -33 25 -36 28 -3 3 -23 19 -45 35 -22 17 -42
32 -45 35 -25 27 -99 70 -120 70 -28 0 -56 -24 -61 -50 -8 -47 72 -205 144
-287 88 -98 105 -114 213 -191 l41 -30 7 -88 c37 -458 73 -696 122 -798 13
-28 24 -58 24 -68 0 -24 20 -107 34 -138 21 -49 84 -136 123 -170 56 -49 82
-70 89 -70 2 0 10 -5 17 -10 47 -39 62 -50 78 -55 11 -4 19 -11 19 -16 0 -5 5
-9 11 -9 6 0 41 -21 77 -47 37 -27 78 -56 93 -65 30 -18 62 -43 91 -70 10 -10
21 -18 24 -18 3 0 29 -19 57 -42 29 -24 60 -50 70 -58 70 -58 309 -305 367
-380 19 -25 40 -49 46 -55 11 -10 94 -118 124 -161 8 -12 46 -67 84 -123 38
-55 73 -101 78 -101 4 0 8 -5 8 -10 0 -6 22 -43 48 -83 27 -40 51 -80 55 -89
3 -10 11 -18 17 -18 5 0 10 -4 10 -9 0 -11 64 -115 163 -269 37 -56 67 -104
67 -107 0 -2 37 -58 83 -125 45 -67 87 -129 92 -138 6 -9 13 -19 16 -22 3 -3
20 -27 39 -55 45 -67 123 -169 133 -173 4 -2 7 -8 7 -14 0 -5 6 -15 13 -22 6
-7 30 -35 52 -62 66 -81 366 -378 419 -414 27 -18 57 -40 66 -49 26 -24 60
-51 65 -51 2 0 55 -33 117 -74 62 -40 140 -86 173 -103 33 -16 83 -42 111 -56
64 -33 244 -93 320 -107 33 -5 79 -14 104 -20 79 -16 250 -12 292 8 37 18 117
17 255 -3 l43 -6 -54 -78 c-29 -43 -97 -167 -150 -277 -54 -109 -101 -206
-106 -214 -8 -13 -29 -54 -127 -255 -62 -127 -173 -336 -184 -345 -3 -3 -16
-29 -29 -57 -13 -29 -27 -53 -32 -53 -4 0 -8 -4 -8 -9 0 -5 -20 -44 -45 -85
-25 -42 -45 -81 -45 -86 0 -6 -3 -10 -8 -10 -4 0 -18 -21 -31 -47 -14 -27 -40
-69 -58 -94 -18 -26 -33 -50 -33 -54 0 -3 -13 -26 -30 -50 -16 -24 -30 -48
-30 -53 0 -6 -3 -12 -7 -14 -5 -1 -21 -23 -38 -48 -16 -25 -33 -49 -37 -55 -4
-5 -47 -68 -95 -140 -47 -71 -90 -131 -95 -133 -4 -2 -8 -8 -8 -13 0 -10 -10
-24 -47 -64 -18 -19 -36 -24 -100 -29 -43 -4 -105 -11 -138 -16 -33 -5 -100
-14 -150 -20 -49 -6 -115 -16 -145 -22 -155 -31 -509 -51 -803 -44 -255 5
-345 12 -522 41 -135 22 -285 47 -330 56 -80 15 -151 29 -190 38 -22 5 -65 14
-95 21 -80 18 -118 27 -180 45 -30 9 -74 20 -97 25 -97 22 -134 31 -258 65
-71 20 -229 60 -350 90 -121 31 -240 62 -265 69 -25 8 -72 19 -105 26 -33 6
-78 16 -100 21 -94 22 -268 49 -455 71 -138 17 -596 17 -720 0 -160 -22 -271
-40 -320 -52 -19 -5 -57 -14 -85 -20 -66 -15 -121 -30 -170 -46 -22 -7 -74
-23 -115 -35 -41 -12 -79 -25 -85 -29 -5 -4 -32 -13 -60 -20 -27 -7 -54 -16
-60 -20 -5 -4 -41 -19 -80 -35 -38 -15 -89 -36 -112 -46 -24 -11 -46 -19 -49
-19 -10 0 -397 -192 -414 -205 -8 -7 -51 -32 -95 -55 -44 -24 -81 -47 -83 -52
-2 -4 -8 -8 -12 -8 -9 0 -73 -40 -97 -60 -7 -6 -24 -15 -38 -22 -14 -6 -25
-14 -25 -18 0 -4 -14 -13 -30 -20 -17 -7 -34 -18 -38 -24 -4 -6 -43 -36 -87
-66 -44 -29 -82 -56 -85 -59 -3 -3 -27 -24 -55 -46 -27 -21 -52 -42 -55 -45
-3 -3 -32 -27 -65 -55 -33 -27 -140 -128 -238 -225 -98 -96 -182 -176 -187
-178 -6 -2 -10 -8 -10 -14 0 -5 -12 -22 -27 -37 -16 -14 -59 -62 -98 -106 -38
-44 -78 -87 -87 -96 -10 -9 -18 -19 -18 -23 0 -4 -12 -19 -27 -35 -44 -44
-103 -111 -103 -117 0 -2 -12 -17 -27 -32 -16 -15 -48 -52 -73 -81 -25 -30
-50 -59 -55 -65 -6 -6 -42 -47 -80 -90 -39 -44 -81 -91 -95 -106 -14 -14 -65
-70 -115 -125 -113 -124 -327 -338 -430 -430 -43 -38 -89 -80 -101 -92 -13
-13 -26 -23 -29 -23 -3 0 -18 -12 -33 -27 -32 -32 -84 -77 -133 -113 -18 -14
-40 -32 -49 -41 -10 -9 -39 -31 -66 -49 -27 -19 -51 -36 -54 -40 -9 -10 -101
-75 -205 -144 -55 -36 -104 -69 -110 -74 -5 -4 -25 -15 -42 -22 -18 -8 -33
-18 -33 -22 0 -5 -4 -8 -9 -8 -5 0 -42 -19 -83 -43 -69 -41 -381 -197 -393
-197 -3 0 -27 -9 -53 -21 -26 -12 -58 -26 -72 -31 -14 -6 -33 -14 -42 -19 -9
-5 -67 -29 -129 -53 -100 -41 -117 -45 -153 -37 -23 5 -72 14 -111 21 -38 6
-90 15 -115 20 -25 5 -74 14 -110 20 -36 6 -94 18 -130 25 -36 7 -94 19 -130
25 -36 6 -86 16 -112 21 -27 5 -69 13 -95 18 -27 5 -75 14 -108 21 -33 6 -85
16 -115 21 -30 5 -84 16 -120 24 -36 8 -81 16 -100 19 -42 7 -122 21 -205 36
-33 6 -89 16 -125 21 -36 6 -90 15 -120 20 -68 11 -162 25 -258 38 -41 6 -90
15 -110 21 -20 5 -67 11 -104 12 -38 2 -68 4 -68 6 0 3 91 116 99 122 4 3 22
25 41 50 19 25 38 47 42 48 5 2 8 8 8 14 0 5 6 15 13 22 14 15 45 54 118 151
29 39 55 72 59 75 3 3 21 28 40 55 19 28 36 52 39 55 11 9 101 130 101 135 0
3 7 13 15 22 21 26 78 103 90 122 6 9 13 18 16 21 3 3 41 57 84 120 43 63 82
117 86 120 3 3 13 19 22 37 9 17 22 37 29 45 7 7 27 33 43 58 17 25 33 47 38
48 4 2 7 8 7 14 0 5 17 35 38 66 22 32 58 89 82 127 24 39 51 82 61 97 11 15
19 32 19 38 0 5 5 10 10 10 6 0 10 4 10 8 0 5 27 58 61 118 34 60 73 132 89
159 37 67 144 281 163 325 8 19 27 62 42 95 15 33 34 78 43 100 8 22 19 44 24
50 4 5 8 17 8 27 0 10 4 26 10 36 10 17 64 170 80 227 30 103 52 185 59 220
36 173 46 228 71 415 22 156 24 409 6 579 -9 86 -21 175 -26 199 -6 23 -10 53
-10 67 0 14 -4 44 -10 67 -5 24 -19 88 -31 143 -12 55 -25 111 -29 125 -4 14
-13 45 -21 70 -46 162 -136 420 -194 555 -7 17 -20 49 -29 73 -16 42 -89 206
-143 322 -60 128 -165 346 -176 365 -6 11 -46 90 -90 175 -43 85 -82 159 -88
165 -5 5 -9 17 -9 26 0 10 -3 19 -7 21 -5 2 -59 104 -122 228 -62 124 -117
232 -122 240 -20 36 -151 314 -194 415 -26 61 -56 128 -66 150 -24 52 -74 189
-106 290 -14 44 -31 96 -38 115 -53 145 -95 394 -95 568 0 156 14 226 91 461
25 75 38 149 39 214 l0 67 28 -5 c15 -3 43 -10 62 -15 52 -13 189 -30 238 -30
24 0 73 -7 110 -16 37 -8 87 -20 112 -26 137 -32 251 -69 347 -114 28 -13 56
-24 61 -24 6 0 27 -9 49 -19 21 -11 83 -41 138 -67 55 -27 102 -51 105 -54 3
-3 37 -21 75 -40 39 -19 72 -37 75 -40 8 -11 130 -80 141 -80 5 0 9 -3 9 -7 0
-5 25 -21 55 -38 30 -16 55 -32 55 -36 0 -4 14 -12 30 -19 17 -7 30 -16 30
-21 0 -5 5 -9 11 -9 11 0 351 -230 385 -261 11 -11 23 -19 27 -19 4 0 15 -7
24 -15 26 -21 103 -78 122 -90 9 -5 18 -12 21 -15 3 -3 21 -17 40 -30 19 -14
44 -32 54 -42 11 -10 23 -18 27 -18 4 0 14 -6 21 -13 17 -17 135 -97 143 -97
21 0 36 -32 29 -65 -17 -94 32 -185 123 -225 54 -24 96 -25 160 -5 26 8 64 20
83 26 19 6 44 14 55 18 28 11 339 165 345 171 20 20 324 170 480 237 19 8 43
19 52 24 10 5 23 9 28 9 6 0 30 9 52 20 23 11 48 20 57 20 8 0 22 6 30 13 9 7
50 24 91 37 41 13 80 27 85 30 6 4 30 12 55 19 25 7 53 17 62 22 10 5 27 9 37
9 11 0 23 5 26 10 3 6 15 10 25 10 11 0 34 6 52 14 36 15 128 43 248 76 101
27 135 37 200 55 82 24 242 63 320 79 127 25 224 47 231 52 5 3 34 9 64 15 30
5 81 14 113 19 31 6 83 15 115 20 31 6 83 14 115 20 31 5 104 16 162 24 58 9
146 22 195 30 308 50 691 76 1097 76 180 0 337 4 350 9 13 5 42 15 66 22 52
15 111 68 141 126 26 52 29 162 6 217 -25 60 -84 116 -160 153 -38 18 -77 33
-87 33 -10 0 -18 4 -18 9 0 5 -12 11 -27 14 -16 2 -61 14 -102 25 -56 16 -80
18 -102 10 -16 -6 -45 -7 -65 -4 l-35 7 47 87 c26 48 52 94 59 102 7 8 29 47
50 85 69 129 98 180 114 205 9 14 27 48 41 75 13 28 27 52 30 55 6 6 17 25 64
112 66 124 99 183 109 196 6 7 20 32 32 55 67 129 111 205 125 217 4 3 22 32
40 65 52 91 272 411 300 435 3 3 16 19 29 35 157 207 449 465 548 487 23 5 43
-1 43 -14z m988 -716 c15 -11 54 -36 87 -57 56 -35 215 -181 215 -197 0 -4 13
-28 30 -54 127 -201 40 -424 -196 -498 -19 -6 -21 0 -32 86 -7 51 -19 125 -27
163 -8 39 -19 97 -25 130 -9 55 -29 155 -51 260 -4 22 -15 66 -24 98 -16 61
-19 87 -10 87 3 0 18 -8 33 -18z m-1650 -7617 c312 -44 512 -83 747 -145 44
-12 96 -25 115 -30 19 -5 64 -16 100 -26 36 -9 81 -20 100 -25 70 -15 189 -47
199 -53 5 -4 29 -10 53 -15 60 -13 327 -79 364 -91 17 -6 39 -10 49 -10 11 0
37 -6 60 -14 22 -8 67 -19 100 -26 33 -6 78 -15 100 -20 214 -45 537 -93 736
-110 145 -12 620 -11 759 2 141 13 285 33 557 78 32 5 40 4 36 -7 -3 -7 -9
-13 -13 -13 -4 0 -19 -17 -32 -37 -14 -21 -43 -56 -64 -78 -21 -23 -66 -72
-99 -110 -149 -171 -462 -466 -669 -630 -21 -16 -49 -40 -62 -52 -13 -13 -25
-23 -28 -23 -6 0 -39 -25 -66 -51 -9 -9 -39 -31 -66 -49 -27 -19 -51 -36 -54
-40 -3 -3 -21 -17 -40 -30 -19 -13 -41 -30 -48 -37 -7 -7 -16 -13 -20 -13 -4
0 -22 -13 -41 -29 -19 -16 -46 -35 -60 -43 -26 -13 -41 -23 -65 -45 -7 -6 -42
-30 -77 -52 -89 -57 -100 -65 -113 -76 -6 -6 -36 -26 -66 -44 -126 -74 -175
-105 -180 -111 -3 -3 -12 -9 -20 -13 -8 -4 -37 -20 -65 -37 -27 -17 -58 -33
-67 -37 -10 -3 -18 -9 -18 -13 0 -4 -11 -11 -25 -14 -14 -4 -25 -11 -25 -16 0
-6 -4 -10 -8 -10 -5 0 -55 -27 -113 -59 -57 -32 -138 -76 -179 -97 -41 -21
-77 -40 -80 -44 -10 -10 -452 -226 -575 -280 -27 -12 -79 -36 -115 -52 -36
-17 -75 -34 -87 -39 -50 -20 -70 -28 -103 -42 -19 -9 -60 -25 -90 -37 -30 -12
-59 -25 -65 -29 -5 -5 -19 -11 -30 -14 -11 -3 -99 -35 -195 -72 -96 -37 -227
-85 -292 -106 -64 -21 -138 -46 -165 -57 -26 -11 -82 -30 -123 -42 -41 -13
-100 -31 -130 -41 -79 -25 -288 -88 -335 -100 -22 -6 -50 -15 -63 -20 -13 -5
-34 -9 -47 -9 -13 0 -27 -4 -30 -10 -3 -5 -17 -10 -30 -10 -13 0 -34 -4 -47
-9 -13 -5 -50 -15 -83 -22 -33 -7 -68 -16 -77 -21 -10 -5 -37 -13 -60 -18 -24
-5 -86 -18 -138 -30 -157 -36 -163 -38 -215 -49 -27 -6 -81 -18 -120 -27 -89
-20 -193 -41 -270 -55 -33 -6 -80 -14 -105 -19 -48 -9 -132 -24 -232 -40 -35
-6 -97 -17 -138 -25 -41 -7 -109 -18 -150 -24 -188 -26 -230 -31 -310 -40
-277 -33 -443 -49 -615 -60 -143 -10 -211 -14 -460 -26 -508 -25 -1220 8
-1860 86 -223 27 -354 49 -292 49 9 0 31 6 49 14 18 8 60 24 93 36 33 12 79
31 102 41 24 11 45 19 48 19 7 0 281 135 330 162 22 13 41 26 43 31 2 4 9 7
16 7 7 0 41 18 75 40 34 22 64 40 66 40 5 0 227 151 235 160 3 3 41 32 85 64
44 33 105 80 135 105 30 25 63 53 73 61 10 8 29 24 41 35 13 11 51 45 86 75
74 65 490 477 490 486 0 3 12 18 28 33 24 24 55 57 171 186 20 22 61 69 91
105 30 35 64 73 75 85 11 11 40 45 65 75 24 30 53 64 65 75 12 11 47 52 79 92
31 39 60 73 64 75 4 2 25 23 46 48 36 41 229 249 318 342 20 21 39 38 43 38 3
0 27 21 53 48 26 26 70 65 97 87 28 22 57 47 65 55 8 9 33 29 55 45 22 17 42
32 45 35 3 4 23 19 45 35 22 17 42 32 45 35 3 3 21 17 40 30 19 14 40 28 45
32 43 33 176 118 185 118 5 0 10 4 10 8 0 5 15 16 33 25 17 9 50 28 72 41 54
34 144 82 240 131 44 22 82 43 83 48 2 4 10 7 17 7 7 0 30 9 52 19 75 37 179
83 243 108 36 14 74 29 85 34 11 5 94 33 185 63 236 77 346 103 650 150 124
20 543 20 678 1z"/>
<path d="M21673 28723 c-48 -19 -209 -333 -262 -513 -6 -19 -19 -62 -30 -95
-10 -33 -24 -82 -31 -110 -6 -27 -18 -66 -25 -85 -7 -19 -18 -60 -24 -90 -7
-30 -16 -73 -21 -95 -30 -137 -57 -427 -46 -497 8 -48 34 -126 49 -146 31 -39
78 -80 99 -85 13 -3 55 -15 93 -26 219 -66 380 -77 543 -37 142 35 185 67 230
169 26 61 6 384 -38 592 -5 22 -14 67 -21 100 -15 74 -34 151 -48 190 -6 17
-20 59 -32 95 -12 36 -30 83 -40 104 -11 22 -19 46 -19 53 0 7 -4 13 -10 13
-5 0 -10 4 -10 9 0 11 -91 203 -100 211 -3 3 -16 25 -29 50 -13 25 -30 52 -37
61 -8 8 -14 21 -14 27 0 7 -4 12 -8 12 -4 0 -19 18 -32 39 -33 53 -87 75 -137
54z"/>
<path d="M13505 26758 c-64 -53 -75 -68 -101 -145 -16 -47 -16 -59 5 -203 5
-30 21 -100 36 -155 14 -55 30 -113 35 -130 9 -34 18 -61 30 -90 5 -11 16 -40
24 -65 8 -25 24 -64 35 -87 12 -23 21 -47 21 -53 0 -5 4 -18 9 -28 14 -26 41
-89 41 -95 0 -3 18 -44 40 -91 22 -47 40 -87 40 -90 0 -13 88 -155 112 -181
16 -16 36 -45 44 -62 20 -40 80 -104 131 -137 66 -44 125 -56 278 -56 147 0
249 14 350 48 79 26 274 117 350 163 33 20 79 46 102 58 29 14 60 44 93 89 69
93 67 115 -15 257 -16 28 -32 52 -35 55 -3 3 -18 23 -34 44 -16 22 -43 54 -60
71 -17 18 -52 54 -77 81 -68 72 -186 182 -249 234 -30 25 -57 47 -60 50 -3 4
-23 19 -45 35 -22 17 -42 32 -45 35 -5 6 -63 46 -155 107 -27 18 -55 38 -62
43 -7 6 -14 10 -16 10 -3 0 -43 24 -90 53 -46 30 -100 60 -118 67 -19 8 -36
17 -39 20 -4 5 -164 84 -225 110 -68 30 -228 70 -278 70 -22 0 -46 -11 -72
-32z"/>
<path d="M22000 24293 c-31 -13 -157 -90 -170 -103 -3 -3 -23 -18 -45 -35 -45
-33 -171 -158 -225 -222 l-35 -42 -110 28 c-145 37 -282 50 -404 39 -104 -9
-150 -26 -194 -72 -109 -114 -80 -264 68 -346 86 -49 149 -79 194 -96 89 -32
90 -32 32 -118 -28 -41 -51 -78 -51 -81 0 -3 -13 -23 -29 -45 -15 -21 -41 -65
-56 -97 -16 -32 -31 -60 -35 -63 -23 -19 -129 -277 -137 -337 -8 -62 18 -147
60 -194 104 -116 263 -127 378 -27 28 25 229 313 229 329 0 5 4 9 8 9 5 0 14
11 20 24 11 25 142 228 152 236 4 3 17 24 30 48 15 25 31 42 42 42 17 0 70
-26 143 -69 17 -10 46 -27 65 -38 79 -46 116 -68 126 -78 6 -5 20 -16 30 -22
11 -7 90 -60 176 -117 169 -113 200 -124 300 -113 53 7 108 27 108 39 0 5 5 8
10 8 34 0 92 92 110 172 11 50 10 63 -9 127 -19 62 -30 79 -89 138 -37 38 -87
84 -111 103 -23 19 -55 45 -69 58 -15 12 -70 50 -122 85 -52 34 -97 64 -100
67 -3 3 -16 11 -29 18 -13 8 -40 23 -60 34 -20 12 -54 30 -76 42 -22 11 -41
21 -43 22 -4 3 28 54 43 70 64 68 174 252 194 325 25 91 -27 197 -119 247 -50
26 -145 29 -200 5z"/>
<path d="M17976 23170 c-34 -17 -102 -64 -116 -80 -3 -3 -23 -18 -45 -35 -50
-37 -195 -181 -255 -254 -84 -102 -81 -100 -110 -89 -208 83 -278 106 -405
134 -121 26 -215 29 -292 9 -139 -35 -201 -76 -234 -153 -55 -127 13 -248 188
-332 46 -22 89 -40 97 -40 7 0 16 -3 20 -7 7 -8 40 -20 188 -70 91 -31 106
-38 97 -52 -5 -9 -18 -29 -28 -46 -80 -129 -131 -217 -131 -225 0 -6 -4 -10
-8 -10 -5 0 -19 -24 -32 -52 -13 -29 -43 -96 -68 -148 -39 -84 -44 -103 -44
-166 0 -61 4 -77 31 -120 33 -54 70 -90 115 -114 42 -22 181 -20 223 2 35 19
89 70 116 108 53 76 111 156 117 160 4 3 17 24 30 48 13 23 27 42 31 42 3 0
12 14 19 30 7 17 15 30 19 30 4 0 15 16 25 35 11 19 22 35 26 35 4 0 13 14 20
30 7 17 16 30 21 30 5 0 9 7 9 15 0 8 4 15 9 15 5 0 13 9 16 20 7 23 26 25 57
8 21 -12 28 -17 60 -43 7 -6 40 -26 73 -45 33 -18 62 -37 65 -40 3 -4 15 -10
27 -14 13 -4 29 -13 36 -20 26 -26 143 -84 193 -95 120 -28 246 49 291 176 25
73 11 156 -38 228 -39 57 -188 199 -269 255 -19 14 -37 28 -40 31 -3 3 -25 19
-50 34 -25 16 -39 30 -32 33 6 2 12 9 12 15 0 6 11 22 24 36 25 28 149 210
203 299 18 30 42 81 54 114 20 55 21 64 9 111 -15 59 -25 79 -59 118 -56 66
-184 89 -265 49z"/>
<path d="M20410 21333 c-52 -9 -275 -84 -287 -96 -3 -4 -12 -7 -20 -7 -7 0
-36 -11 -65 -25 -28 -14 -57 -25 -63 -25 -6 0 -30 -9 -53 -20 -22 -11 -46 -20
-52 -20 -5 0 -18 -4 -28 -9 -9 -5 -42 -19 -72 -31 -110 -46 -145 -64 -175 -93
-27 -26 -30 -35 -30 -92 0 -57 3 -67 29 -94 17 -17 36 -31 43 -31 8 0 27 -13
43 -30 16 -16 32 -30 36 -30 3 0 27 -14 53 -31 39 -27 160 -78 226 -96 11 -3
25 -9 30 -13 26 -20 144 -50 198 -50 56 0 91 14 133 55 17 17 94 173 94 191 0
3 16 40 36 82 73 157 84 193 91 296 l6 91 -38 38 c-20 20 -44 37 -53 37 -10 0
-26 2 -37 4 -11 2 -31 2 -45 -1z"/>
<path d="M7508 26770 c-81 -43 -131 -146 -110 -225 10 -40 80 -194 92 -205 3
-3 16 -27 30 -55 13 -27 35 -64 47 -81 13 -17 23 -36 23 -42 0 -7 4 -12 9 -12
5 0 14 -13 21 -29 6 -16 19 -37 28 -47 9 -11 30 -37 47 -59 54 -73 69 -89 170
-190 116 -116 156 -137 227 -116 53 16 93 57 107 109 10 35 8 49 -13 104 -24
65 -125 279 -135 288 -3 3 -23 39 -44 80 -51 102 -101 194 -107 200 -3 3 -18
30 -33 60 -72 140 -120 202 -176 226 -48 20 -138 17 -183 -6z"/>
<path d="M7133 26383 c-24 -5 -58 -34 -88 -77 -11 -15 -24 -33 -30 -40 -5 -6
-17 -24 -25 -41 -8 -16 -17 -32 -20 -35 -3 -3 -25 -45 -49 -95 -65 -135 -120
-286 -159 -430 -6 -22 -16 -60 -23 -85 -39 -143 -76 -381 -99 -640 -49 -545
-45 -1123 10 -1620 5 -47 14 -130 20 -185 6 -55 15 -125 20 -155 5 -30 14 -91
20 -135 7 -44 18 -109 25 -145 8 -36 19 -94 25 -130 6 -36 15 -81 20 -100 5
-19 16 -71 25 -115 8 -44 25 -120 36 -170 11 -49 25 -109 30 -133 5 -24 11
-48 15 -53 3 -6 14 -43 24 -82 41 -163 85 -318 104 -367 8 -19 28 -82 46 -140
18 -58 36 -113 41 -122 5 -10 9 -26 9 -36 0 -10 3 -22 7 -26 7 -6 20 -42 49
-126 8 -25 19 -54 23 -65 5 -11 14 -36 21 -55 7 -19 16 -44 20 -55 4 -11 18
-47 30 -80 12 -33 30 -78 40 -100 10 -22 33 -76 50 -120 33 -84 42 -105 83
-195 49 -107 79 -175 94 -210 8 -19 19 -42 23 -50 5 -8 28 -55 52 -105 68
-144 184 -367 323 -621 21 -38 42 -70 46 -72 5 -2 9 -7 9 -12 0 -10 110 -203
120 -210 4 -3 13 -16 20 -30 16 -30 122 -193 130 -200 3 -3 17 -23 30 -45 13
-22 26 -42 29 -45 10 -9 51 -69 51 -75 0 -5 23 -33 80 -98 95 -108 272 -116
384 -17 66 59 105 171 86 255 -10 47 -28 94 -40 105 -3 3 -19 28 -35 55 -37
62 -39 66 -97 161 -27 42 -48 78 -48 80 0 2 -20 35 -45 74 -25 39 -45 72 -45
74 0 2 -25 46 -57 97 -31 52 -68 117 -83 144 -15 28 -36 67 -48 87 -12 21 -38
68 -58 105 -20 37 -41 72 -45 78 -5 5 -9 17 -9 26 0 10 -3 19 -7 21 -5 2 -26
39 -48 83 -22 44 -43 82 -47 83 -5 2 -8 9 -8 16 0 6 -23 56 -50 111 -44 86
-92 188 -147 315 -9 19 -27 60 -41 90 -13 30 -28 64 -32 75 -5 11 -15 36 -24
57 -24 55 -20 54 32 -9 144 -171 307 -280 463 -308 80 -15 238 57 303 137 15
18 34 41 42 52 43 52 101 157 149 271 9 22 21 47 26 55 10 17 14 25 40 98 107
293 128 351 182 482 32 76 73 150 83 150 6 0 62 -38 80 -55 6 -5 26 -22 45
-37 19 -14 48 -38 64 -53 17 -14 50 -40 75 -58 25 -17 50 -35 55 -39 6 -5 26
-18 45 -31 186 -121 375 -113 524 22 116 105 166 176 281 397 30 56 58 110 64
120 6 11 23 48 39 84 39 86 61 132 71 150 5 8 16 31 24 50 8 19 27 61 41 93
14 32 26 60 26 62 0 3 20 48 45 101 25 52 45 97 45 100 0 2 9 26 21 52 12 26
25 56 29 67 5 11 22 49 38 85 16 36 44 99 62 140 18 41 38 89 45 105 7 17 25
56 39 87 14 31 26 59 26 62 0 4 8 25 19 49 10 23 29 69 41 102 12 33 28 71 35
85 56 108 6 210 -102 210 -70 0 -95 -33 -212 -275 -85 -175 -171 -361 -171
-370 0 -5 -19 -50 -65 -150 -13 -27 -30 -66 -38 -85 -24 -57 -57 -131 -84
-190 -14 -30 -31 -70 -39 -87 -8 -18 -20 -48 -28 -65 -40 -93 -149 -329 -178
-383 -12 -22 -33 -62 -47 -90 -14 -27 -29 -52 -32 -55 -3 -3 -8 -12 -12 -20
-21 -48 -83 -139 -137 -199 -30 -34 -79 -61 -110 -61 -35 0 -117 37 -160 73
-14 12 -41 33 -60 47 -36 27 -58 46 -107 91 -18 16 -37 29 -42 29 -5 0 -11 4
-13 8 -4 10 -83 63 -118 79 -108 51 -146 54 -227 16 -85 -39 -137 -98 -204
-233 -27 -55 -59 -131 -79 -190 -14 -42 -23 -63 -44 -112 -9 -20 -16 -41 -16
-47 0 -6 -4 -20 -10 -31 -5 -11 -14 -29 -20 -40 -5 -11 -10 -27 -10 -35 0 -8
-4 -23 -9 -33 -11 -21 -25 -57 -42 -102 -6 -19 -43 -99 -81 -177 -52 -108 -80
-153 -115 -188 -26 -25 -53 -45 -60 -45 -14 0 -114 48 -123 59 -3 3 -25 22
-50 41 -78 60 -295 272 -473 463 -55 59 -106 107 -111 107 -6 0 -26 49 -45
108 -18 59 -44 139 -56 177 -12 39 -28 90 -35 115 -7 25 -16 56 -21 70 -8 22
-18 62 -49 190 -5 19 -16 62 -25 95 -31 114 -75 320 -115 540 -5 28 -16 86
-24 130 -31 167 -46 286 -88 710 -17 174 -17 1001 0 1180 18 183 31 316 42
415 5 47 14 128 19 180 6 52 16 142 23 200 14 115 18 676 5 722 -9 33 -50 76
-84 89 -25 9 -41 10 -80 2z"/>
<path d="M11718 24887 c-62 -62 -118 -127 -118 -137 0 -6 -4 -10 -8 -10 -4 0
-15 -12 -24 -27 -9 -16 -28 -41 -42 -58 -14 -16 -26 -33 -26 -37 0 -4 -6 -13
-13 -20 -18 -18 -77 -105 -77 -113 0 -4 -16 -29 -35 -55 -19 -26 -35 -52 -35
-58 0 -6 -3 -12 -7 -14 -18 -7 -123 -243 -123 -274 0 -53 62 -103 113 -90 40
10 172 149 246 260 19 28 41 57 48 64 7 7 13 17 13 21 0 4 8 16 18 27 10 10
37 48 60 84 23 36 48 73 55 82 61 82 137 220 143 259 8 46 -17 102 -52 118
-14 6 -42 11 -64 11 -30 0 -45 -7 -72 -33z"/>
<path d="M20953 17798 c-33 -16 -45 -66 -50 -215 -4 -95 -1 -161 12 -240 16
-102 58 -327 75 -403 35 -152 36 -158 74 -295 38 -139 82 -285 100 -335 9 -25
23 -65 32 -90 8 -25 19 -54 24 -65 4 -11 23 -54 40 -96 64 -151 174 -231 273
-198 75 25 128 93 202 264 33 76 81 218 106 310 6 22 17 60 25 85 8 25 14 64
14 88 0 36 -6 47 -37 77 -48 45 -94 48 -140 8 -35 -31 -112 -174 -162 -303
-18 -47 -37 -94 -41 -105 -5 -11 -10 -27 -12 -34 -3 -8 -12 7 -21 35 -60 171
-81 237 -97 299 -10 39 -26 95 -35 125 -31 106 -39 139 -65 255 -5 22 -14 60
-19 85 -6 25 -16 70 -22 100 -47 235 -119 496 -165 597 -25 56 -65 73 -111 51z"/>
<path d="M21928 16394 c-62 -33 -63 -91 -6 -211 23 -49 46 -89 50 -91 4 -2 8
-8 8 -14 0 -5 11 -24 25 -42 14 -18 25 -38 25 -44 0 -6 3 -12 8 -14 4 -1 27
-32 51 -68 24 -36 49 -69 55 -75 6 -5 36 -46 65 -90 30 -44 58 -82 62 -85 4
-3 29 -37 55 -75 26 -39 51 -71 56 -73 4 -2 8 -9 8 -15 0 -7 10 -23 23 -37 13
-14 43 -54 67 -90 24 -36 53 -77 64 -91 12 -15 30 -39 41 -55 34 -50 108 -119
147 -137 57 -27 118 -22 165 12 22 16 49 42 61 58 42 59 86 230 132 508 6 38
14 115 17 170 l6 100 374 0 375 0 24 28 c31 36 31 78 0 114 -21 25 -36 31
-118 43 -114 18 -468 19 -548 1 -30 -6 -79 -17 -109 -23 -42 -9 -58 -18 -70
-39 -8 -15 -24 -27 -35 -27 -38 0 -75 -21 -90 -51 -37 -70 -116 -352 -142
-504 l-6 -37 -44 62 c-23 35 -60 88 -80 118 -21 30 -40 57 -43 60 -14 12 -51
70 -51 80 0 5 -4 10 -8 10 -4 0 -38 43 -76 95 -38 53 -74 101 -80 108 -7 7
-31 39 -53 72 -23 33 -53 72 -67 87 -14 15 -26 30 -26 33 0 7 -41 54 -125 143
-97 102 -130 117 -187 86z"/>
<path d="M20505 11803 c-27 -8 -75 -22 -105 -30 -233 -64 -404 -251 -348 -380
17 -37 62 -78 113 -102 17 -7 41 -19 55 -26 40 -20 197 -38 264 -31 143 16
202 29 258 57 10 5 25 9 33 9 17 0 52 18 73 38 7 6 18 12 23 12 22 0 95 90
113 139 49 137 -20 257 -179 313 -62 23 -227 23 -300 1z"/>
<path d="M25751 9984 c-57 -7 -124 -20 -149 -28 -25 -9 -56 -16 -68 -16 -12 0
-75 -14 -140 -31 -66 -17 -144 -37 -174 -44 -123 -30 -315 -122 -416 -199
-168 -128 -324 -277 -436 -417 -96 -121 -129 -170 -170 -255 -19 -38 -46 -87
-60 -109 -27 -43 -68 -131 -68 -147 0 -5 -12 -39 -27 -76 -27 -68 -52 -167
-77 -302 -8 -41 -20 -88 -26 -105 -17 -42 -18 -387 -2 -495 28 -187 81 -388
131 -500 l18 -40 -77 -152 c-103 -208 -203 -471 -275 -730 -9 -32 -19 -58 -23
-58 -4 0 -27 30 -52 66 -24 36 -82 101 -127 145 l-84 80 19 27 c68 96 181 352
236 533 37 122 86 351 108 504 7 53 13 188 13 330 0 214 -3 252 -23 350 -61
282 -156 471 -316 630 -146 144 -278 218 -596 330 -529 187 -675 231 -884 265
-343 57 -827 46 -1131 -24 -391 -91 -888 -405 -1310 -830 -561 -564 -891
-1207 -959 -1871 -4 -33 -9 -77 -12 -99 l-6 -38 -77 74 c-42 41 -104 97 -138
123 -35 26 -63 52 -63 56 0 5 32 48 71 96 182 227 351 511 442 744 105 265
114 548 26 819 -83 256 -226 479 -449 701 -270 270 -568 445 -902 533 -158 41
-251 51 -448 50 -211 -1 -342 -21 -535 -79 -307 -93 -649 -268 -915 -468 -363
-272 -623 -668 -755 -1147 -54 -198 -68 -294 -68 -485 l0 -170 -103 205 c-114
227 -215 402 -343 590 -508 752 -1086 1222 -1680 1367 -143 35 -365 43 -511
19 -310 -52 -659 -240 -883 -475 -32 -33 -60 -61 -61 -61 -2 0 -20 28 -41 63
-336 549 -829 710 -1340 437 -247 -132 -584 -413 -974 -809 -902 -917 -1344
-1627 -1571 -2531 -86 -340 -128 -642 -137 -975 -18 -692 145 -1220 507 -1639
48 -56 100 -112 116 -125 16 -14 61 -52 99 -86 189 -164 495 -332 775 -424
502 -166 1062 -150 1663 50 431 143 679 318 842 593 61 103 75 140 82 211 l5
60 212 0 c128 1 236 6 276 13 92 18 188 42 238 58 56 18 72 18 72 -3 0 -33 48
-121 87 -160 92 -92 357 -272 528 -358 276 -140 556 -186 932 -154 461 39 820
163 1123 388 131 97 287 262 376 397 43 66 93 150 109 187 17 37 32 67 36 67
3 0 15 -33 28 -73 47 -147 153 -349 265 -507 83 -115 277 -313 398 -405 417
-316 965 -470 1549 -435 503 30 940 195 1288 485 235 195 429 475 517 745 15
47 29 87 31 89 2 3 11 -6 20 -20 52 -73 225 -279 319 -378 827 -870 2000
-1286 2974 -1055 291 69 578 204 790 372 283 224 507 554 625 919 l26 82 101
-105 c333 -345 752 -569 1258 -674 314 -65 741 -67 1100 -5 722 124 1403 514
1852 1061 109 133 176 239 292 461 112 214 132 270 207 578 23 94 47 184 54
202 27 65 62 368 69 593 20 639 -153 1371 -481 2027 -59 118 -86 162 -197 320
-99 139 -183 242 -230 283 -23 19 -97 89 -166 155 -69 66 -161 145 -205 174
-99 67 -251 175 -328 233 -63 48 -122 80 -237 127 -42 17 -109 50 -151 74 -41
24 -104 53 -140 66 -35 13 -77 31 -94 41 -16 10 -48 22 -70 26 -22 4 -67 17
-100 29 -33 13 -107 30 -165 39 -58 9 -145 24 -194 31 -109 18 -323 18 -465
-1z m474 -650 c182 -30 406 -125 751 -317 431 -241 642 -437 849 -792 216
-371 402 -927 460 -1376 23 -173 30 -485 16 -646 -55 -626 -264 -1092 -652
-1457 -522 -491 -1275 -736 -1989 -646 -573 72 -1068 404 -1303 875 -114 228
-138 427 -86 735 36 217 137 585 221 802 l29 78 90 -78 c141 -120 279 -220
337 -242 111 -42 246 -18 336 61 131 115 149 314 41 455 -14 18 -77 72 -140
119 -226 167 -362 322 -460 520 -175 357 -181 791 -17 1130 96 196 286 427
457 553 76 57 234 138 332 172 200 68 504 91 728 54z m-8939 -144 c440 -90
892 -518 954 -905 19 -117 -6 -219 -100 -410 -155 -316 -419 -631 -667 -795
-244 -162 -453 -231 -703 -232 -198 0 -435 52 -583 128 -29 15 -69 36 -89 46
-50 26 -120 35 -197 25 -60 -8 -66 -7 -104 20 -111 76 -232 214 -291 331 -89
178 -86 428 9 701 141 403 333 628 738 861 384 220 716 294 1033 230z m-6880
-95 c113 -78 238 -273 350 -546 116 -285 167 -517 195 -894 13 -172 7 -588
-11 -758 -15 -151 10 -238 93 -321 69 -68 126 -91 232 -91 106 0 157 19 229
85 92 85 110 162 125 536 17 428 -9 820 -76 1132 -15 70 -27 143 -27 162 0 21
17 69 43 120 169 337 554 574 865 532 349 -46 760 -337 1133 -802 448 -557
739 -1173 947 -2005 119 -475 166 -773 166 -1055 1 -237 -20 -363 -83 -510
-111 -257 -364 -466 -672 -555 -184 -53 -312 -70 -540 -70 -239 0 -281 8 -425
76 -86 41 -302 181 -374 243 l-39 34 67 74 c187 206 340 500 371 711 4 26 10
49 14 51 4 3 38 -13 76 -35 38 -22 114 -61 169 -86 162 -74 276 -69 393 17
118 87 162 259 99 395 -41 89 -85 130 -206 187 -163 77 -260 146 -405 292
-146 147 -260 292 -326 415 -60 113 -98 154 -177 193 -59 29 -76 33 -147 33
-98 -1 -152 -23 -224 -90 -57 -53 -86 -107 -101 -185 -16 -83 1 -147 80 -305
77 -156 103 -243 120 -418 23 -228 -25 -447 -131 -604 -138 -204 -322 -327
-564 -379 -79 -17 -290 -19 -377 -5 -395 66 -661 303 -755 671 -46 180 -41
379 13 554 14 44 51 131 81 191 50 98 57 118 61 185 3 61 0 86 -18 134 -28 72
-95 147 -165 184 -44 24 -62 27 -145 27 -85 0 -101 -3 -148 -28 -72 -38 -122
-93 -171 -186 -216 -415 -261 -848 -134 -1289 107 -375 372 -718 689 -892 l60
-34 -30 -53 c-65 -114 -112 -169 -188 -220 -151 -101 -458 -205 -763 -259
-155 -28 -475 -25 -615 5 -364 77 -703 264 -902 496 -235 275 -342 624 -341
1115 0 287 36 573 109 862 135 541 327 949 654 1394 389 528 1068 1223 1449
1483 205 140 292 158 397 86z m11382 -195 c198 -21 336 -59 751 -206 314 -112
409 -155 470 -209 107 -97 173 -346 157 -595 -27 -427 -146 -797 -334 -1045
-66 -86 -273 -295 -372 -374 -204 -164 -387 -251 -526 -251 -60 0 -63 1 -99
42 -50 54 -156 278 -239 501 -59 158 -95 258 -214 597 -69 196 -115 264 -217
318 -44 24 -61 27 -145 27 -89 0 -100 -2 -163 -35 -77 -39 -140 -97 -170 -155
-24 -48 -73 -223 -121 -440 -92 -415 -148 -900 -150 -1300 l-1 -180 33 -68
c123 -249 481 -240 597 16 24 52 27 72 31 205 3 81 9 208 14 283 6 74 10 144
10 155 1 10 26 -31 58 -91 77 -149 142 -243 225 -325 158 -157 353 -229 587
-217 306 16 622 161 950 436 47 39 89 71 93 71 21 0 107 -96 149 -167 109
-184 230 -508 279 -748 55 -272 25 -563 -90 -855 -164 -419 -482 -678 -963
-782 -90 -19 -133 -22 -338 -22 -201 -1 -253 2 -355 21 -595 110 -1144 415
-1587 882 -262 276 -506 640 -642 958 -227 531 -280 1265 -127 1763 185 606
699 1226 1329 1605 188 112 343 164 557 184 128 12 453 12 563 1z m-6720
-2047 c75 -98 214 -232 318 -308 43 -32 80 -59 81 -59 1 -1 -20 -60 -47 -131
-27 -72 -69 -202 -95 -290 -25 -88 -48 -167 -51 -175 -3 -8 -21 59 -40 150
-55 267 -187 768 -229 873 -13 32 2 17 63 -60z m2773 -423 c97 -54 162 -105
253 -200 229 -240 408 -587 511 -990 50 -195 60 -274 59 -475 0 -177 -2 -196
-27 -278 -65 -210 -187 -380 -376 -523 -272 -204 -629 -305 -1030 -291 -458
17 -814 163 -1083 445 -258 272 -371 605 -338 997 22 263 105 637 206 933 57
166 62 175 87 168 144 -43 436 -70 673 -63 164 4 186 7 245 31 36 14 87 30
114 36 154 31 298 83 469 171 83 42 154 77 157 78 3 0 39 -17 80 -39z"/>
<path d="M26630 7561 c-120 -39 -162 -87 -332 -380 -42 -74 -79 -128 -82 -120
-2 8 -7 34 -10 59 -16 110 -114 231 -218 266 -166 56 -341 -20 -415 -181 -23
-50 -27 -73 -27 -135 2 -132 84 -479 178 -749 l36 -104 -47 -86 c-54 -100 -69
-127 -123 -222 -22 -39 -40 -72 -40 -74 0 -2 -16 -31 -35 -64 -89 -151 -80
-300 26 -415 165 -181 428 -140 551 85 l32 57 72 -98 c155 -211 365 -417 482
-472 149 -71 327 -18 418 125 36 55 57 149 49 213 -11 93 -56 165 -149 243
-169 141 -308 321 -450 583 l-47 87 129 233 c71 128 142 255 157 282 33 59
169 289 217 368 84 137 66 301 -45 412 -65 65 -127 90 -222 93 -44 1 -91 -1
-105 -6z"/>
<path d="M24488 5990 c-61 -32 -92 -82 -96 -155 -5 -77 20 -133 78 -171 153
-102 349 51 287 224 -16 42 -63 91 -104 108 -46 20 -121 17 -165 -6z"/>
<path d="M24718 5560 c-118 -37 -168 -139 -128 -261 95 -285 312 -544 580
-691 83 -45 198 -88 237 -88 150 1 243 174 160 298 -24 38 -49 53 -177 110
-181 80 -350 265 -426 466 -34 88 -63 128 -107 149 -43 21 -105 28 -139 17z"/>
<path d="M15845 8495 c-83 -29 -118 -95 -171 -320 -48 -206 -42 -510 11 -591
30 -46 84 -77 140 -82 70 -6 116 11 159 58 49 55 62 105 48 184 -22 118 -7
279 42 449 41 140 32 203 -37 264 -35 31 -91 53 -132 53 -11 -1 -38 -7 -60
-15z"/>
<path d="M16155 7440 c-53 -12 -94 -39 -121 -80 -104 -157 61 -359 231 -281
176 80 141 334 -50 363 -16 3 -43 2 -60 -2z"/>
<path d="M8096 5945 c-102 -36 -155 -157 -112 -258 24 -59 111 -117 176 -117
34 0 91 22 121 47 115 97 74 293 -69 333 -48 13 -68 12 -116 -5z"/>
<path d="M8062 5323 c-30 -19 -51 -45 -69 -81 -24 -48 -25 -59 -19 -135 38
-447 291 -871 665 -1115 95 -62 223 -122 261 -122 158 0 253 176 164 303 -22
30 -52 52 -124 88 -221 112 -401 311 -505 559 -43 102 -64 187 -75 302 -10
104 -22 138 -67 180 -60 57 -161 66 -231 21z"/>
<path d="M22680 8169 c-65 -26 -112 -98 -114 -174 -2 -175 218 -261 333 -130
55 63 64 135 26 211 -34 69 -90 104 -165 103 -30 0 -66 -5 -80 -10z"/>
<path d="M22554 7547 c-59 -23 -84 -53 -170 -207 -145 -261 -302 -488 -355
-516 -16 -8 -41 -32 -55 -54 -66 -99 -27 -232 81 -281 81 -37 171 -16 248 59
116 112 311 402 440 651 66 128 69 137 63 185 -14 121 -146 206 -252 163z"/>
</g>
</svg>
